<svg id="Layer_1" data-name="Layer 1" xmlns="http://www.w3.org/2000/svg" viewBox="0 0 120 120"><path d="M60.56,16.71c26.46,0,48.54,22.16,48.52,48.65s-22.14,48.55-48.63,48.53S11.91,91.74,11.93,65.24,34.08,16.69,60.56,16.71Zm-12,55.58C35.38,62.92,35.3,47.41,44.07,38a22.14,22.14,0,0,1,32-.87C84.9,45.51,86.92,62,72.38,72.42A39.84,39.84,0,0,1,94.86,91.89c13.07-16.4,12.77-44.35-6.78-60.28-19-15.45-47.61-12-62.21,7.3-14.09,18.66-9,42.82.39,52.73C32.81,81.12,34.65,79.52,48.56,72.29Zm9.14,36.37c13.81,0,24.33-4,32.06-11a2.13,2.13,0,0,0,.57-3C84.14,82.36,74.21,75.82,60.5,75.82S36.87,82.36,30.67,94.6a2.12,2.12,0,0,0,.59,3C39.65,105,49.47,108.57,57.7,108.66ZM77.82,53.18A16.91,16.91,0,0,0,60.67,35.8,16.9,16.9,0,0,0,43.19,53,16.91,16.91,0,0,0,60.43,70.51,16.91,16.91,0,0,0,77.82,53.18Z" fill="#a11e22" stroke="#a11e22" stroke-miterlimit="10" stroke-width="2"/></svg>